<?xml version="1.0" encoding="UTF-8" standalone="no"?>
<svg
   xmlns:dc="http://purl.org/dc/elements/1.1/"
   xmlns:cc="http://creativecommons.org/ns#"
   xmlns:rdf="http://www.w3.org/1999/02/22-rdf-syntax-ns#"
   xmlns:svg="http://www.w3.org/2000/svg"
   xmlns="http://www.w3.org/2000/svg"
   id="svg902"
   version="1.1"
   viewBox="0 0 88.090469 69.901924"
   height="69.901924mm"
   width="88.090469mm">
  <defs
     id="defs896" />
  <metadata
     id="metadata899">
    <rdf:RDF>
      <cc:Work
         rdf:about="">
        <dc:format>image/svg+xml</dc:format>
        <dc:type
           rdf:resource="http://purl.org/dc/dcmitype/StillImage" />
        <dc:title></dc:title>
      </cc:Work>
    </rdf:RDF>
  </metadata>
  <g
     id="g6353"
     transform="translate(0,-181.72479)"
     class="table">
    <g
       style="fill:#ececec"
       id="g845-8-2"
       transform="matrix(-0.433793,0,0,-0.41997619,79.73605,251.51164)">
      <path
         id="path843-7-9"
         pointer-events="none"
         stroke-miterlimit="10"
         d="m 37.45,17.62 2.98,23.84 C 41,44.97 39.44,48.47 36.46,50.4 26.25,52 15.85,52 5.64,50.4 2.65,48.47 1.09,44.97 1.66,41.46 L 4.64,17.62 c 0.57,-2.64 3.42,-4.67 6.96,-4.97 h 18.89 c 3.54,0.3 6.39,2.33 6.96,4.97 z M 10.79,12.65 5.68,6.36 m 10.78,6.29 -1.7,-7.19 m 8.51,7.19 2.27,-7.19 m 3.41,7.19 5.68,-6.29 m 1.7,0.33 C 25.82,5.06 15.06,5.06 4.54,6.69 L 0,2.72 c 13.45,-2.71 27.42,-2.71 40.87,0 z"
         style="fill:#ececec;stroke:#000000;stroke-linejoin:round;stroke-miterlimit:10" />
    </g>
    <g
       style="fill:#ececec"
       id="g845-8-2-3"
       transform="matrix(-0.433793,0,0,-0.41997619,54.021702,251.70543)">
      <path
         id="path843-7-9-1"
         pointer-events="none"
         stroke-miterlimit="10"
         d="m 37.45,17.62 2.98,23.84 C 41,44.97 39.44,48.47 36.46,50.4 26.25,52 15.85,52 5.64,50.4 2.65,48.47 1.09,44.97 1.66,41.46 L 4.64,17.62 c 0.57,-2.64 3.42,-4.67 6.96,-4.97 h 18.89 c 3.54,0.3 6.39,2.33 6.96,4.97 z M 10.79,12.65 5.68,6.36 m 10.78,6.29 -1.7,-7.19 m 8.51,7.19 2.27,-7.19 m 3.41,7.19 5.68,-6.29 m 1.7,0.33 C 25.82,5.06 15.06,5.06 4.54,6.69 L 0,2.72 c 13.45,-2.71 27.42,-2.71 40.87,0 z"
         style="fill:#ececec;stroke:#000000;stroke-linejoin:round;stroke-miterlimit:10" />
    </g>
    <g
       style="fill:#ececec"
       id="g845-8-2-9"
       transform="matrix(-0.433793,0,0,-0.41997619,27.599129,251.70543)">
      <path
         id="path843-7-9-4"
         pointer-events="none"
         stroke-miterlimit="10"
         d="m 37.45,17.62 2.98,23.84 C 41,44.97 39.44,48.47 36.46,50.4 26.25,52 15.85,52 5.64,50.4 2.65,48.47 1.09,44.97 1.66,41.46 L 4.64,17.62 c 0.57,-2.64 3.42,-4.67 6.96,-4.97 h 18.89 c 3.54,0.3 6.39,2.33 6.96,4.97 z M 10.79,12.65 5.68,6.36 m 10.78,6.29 -1.7,-7.19 m 8.51,7.19 2.27,-7.19 m 3.41,7.19 5.68,-6.29 m 1.7,0.33 C 25.82,5.06 15.06,5.06 4.54,6.69 L 0,2.72 c 13.45,-2.71 27.42,-2.71 40.87,0 z"
         style="fill:#ececec;stroke:#000000;stroke-linejoin:round;stroke-miterlimit:10" />
    </g>
    <g
       style="fill:#ececec"
       id="g845-8-2-36"
       transform="matrix(0.433793,0,0,0.41997619,9.657156,181.83987)">
      <path
         id="path843-7-9-10"
         pointer-events="none"
         stroke-miterlimit="10"
         d="m 37.45,17.62 2.98,23.84 C 41,44.97 39.44,48.47 36.46,50.4 26.25,52 15.85,52 5.64,50.4 2.65,48.47 1.09,44.97 1.66,41.46 L 4.64,17.62 c 0.57,-2.64 3.42,-4.67 6.96,-4.97 h 18.89 c 3.54,0.3 6.39,2.33 6.96,4.97 z M 10.79,12.65 5.68,6.36 m 10.78,6.29 -1.7,-7.19 m 8.51,7.19 2.27,-7.19 m 3.41,7.19 5.68,-6.29 m 1.7,0.33 C 25.82,5.06 15.06,5.06 4.54,6.69 L 0,2.72 c 13.45,-2.71 27.42,-2.71 40.87,0 z"
         style="fill:#ececec;stroke:#000000;stroke-linejoin:round;stroke-miterlimit:10" />
    </g>
    <g
       style="fill:#ececec"
       id="g845-8-2-3-6"
       transform="matrix(0.433793,0,0,0.41997619,35.371504,181.64608)">
      <path
         id="path843-7-9-1-3"
         pointer-events="none"
         stroke-miterlimit="10"
         d="m 37.45,17.62 2.98,23.84 C 41,44.97 39.44,48.47 36.46,50.4 26.25,52 15.85,52 5.64,50.4 2.65,48.47 1.09,44.97 1.66,41.46 L 4.64,17.62 c 0.57,-2.64 3.42,-4.67 6.96,-4.97 h 18.89 c 3.54,0.3 6.39,2.33 6.96,4.97 z M 10.79,12.65 5.68,6.36 m 10.78,6.29 -1.7,-7.19 m 8.51,7.19 2.27,-7.19 m 3.41,7.19 5.68,-6.29 m 1.7,0.33 C 25.82,5.06 15.06,5.06 4.54,6.69 L 0,2.72 c 13.45,-2.71 27.42,-2.71 40.87,0 z"
         style="fill:#ececec;stroke:#000000;stroke-linejoin:round;stroke-miterlimit:10" />
    </g>
    <g
       style="fill:#ececec"
       id="g845-8-2-9-2"
       transform="matrix(0.433793,0,0,0.41997619,61.794077,181.64608)">
      <path
         id="path843-7-9-4-0"
         pointer-events="none"
         stroke-miterlimit="10"
         d="m 37.45,17.62 2.98,23.84 C 41,44.97 39.44,48.47 36.46,50.4 26.25,52 15.85,52 5.64,50.4 2.65,48.47 1.09,44.97 1.66,41.46 L 4.64,17.62 c 0.57,-2.64 3.42,-4.67 6.96,-4.97 h 18.89 c 3.54,0.3 6.39,2.33 6.96,4.97 z M 10.79,12.65 5.68,6.36 m 10.78,6.29 -1.7,-7.19 m 8.51,7.19 2.27,-7.19 m 3.41,7.19 5.68,-6.29 m 1.7,0.33 C 25.82,5.06 15.06,5.06 4.54,6.69 L 0,2.72 c 13.45,-2.71 27.42,-2.71 40.87,0 z"
         style="fill:#ececec;stroke:#000000;stroke-linejoin:round;stroke-miterlimit:10" />
    </g>
    <rect
       style="display:inline;fill:#d3beb1;stroke:#000000;stroke-width:0.40000001;stroke-miterlimit:4;stroke-dasharray:none;stroke-opacity:1;fill-opacity:1"
       id="rect3721"
       width="87.690468"
       height="43.089287"
       x="0.2"
       y="194.58992" />
  </g>
</svg>
