<?xml version="1.0" encoding="UTF-8" standalone="no"?>
<svg
   xmlns:dc="http://purl.org/dc/elements/1.1/"
   xmlns:cc="http://creativecommons.org/ns#"
   xmlns:rdf="http://www.w3.org/1999/02/22-rdf-syntax-ns#"
   xmlns:svg="http://www.w3.org/2000/svg"
   xmlns="http://www.w3.org/2000/svg"
   id="svg902"
   version="1.1"
   viewBox="0 0 80.908928 63.054615"
   height="63.054615mm"
   width="80.908928mm">
  <defs
     id="defs896" />
  <metadata
     id="metadata899">
    <rdf:RDF>
      <cc:Work
         rdf:about="">
        <dc:format>image/svg+xml</dc:format>
        <dc:type
           rdf:resource="http://purl.org/dc/dcmitype/StillImage" />
        <dc:title></dc:title>
      </cc:Work>
    </rdf:RDF>
  </metadata>
  <g
     id="g6934"
     transform="translate(-3.9577377,-277.08013)"
     class="table">
    <g
       style="display:inline;fill:#f0eecb;fill-opacity:1"
       transform="matrix(-0.33402524,-0.15575853,0.15022859,-0.32216624,19.71821,336.65496)"
       id="g845-36-6-3">
      <path
         style="fill:#f0eecb;stroke:#000000;stroke-linejoin:round;stroke-miterlimit:10;fill-opacity:1"
         d="m 37.45,17.62 2.98,23.84 C 41,44.97 39.44,48.47 36.46,50.4 26.25,52 15.85,52 5.64,50.4 2.65,48.47 1.09,44.97 1.66,41.46 L 4.64,17.62 c 0.57,-2.64 3.42,-4.67 6.96,-4.97 h 18.89 c 3.54,0.3 6.39,2.33 6.96,4.97 z M 10.79,12.65 5.68,6.36 m 10.78,6.29 -1.7,-7.19 m 8.51,7.19 2.27,-7.19 m 3.41,7.19 5.68,-6.29 m 1.7,0.33 C 25.82,5.06 15.06,5.06 4.54,6.69 L 0,2.72 c 13.45,-2.71 27.42,-2.71 40.87,0 z"
         stroke-miterlimit="10"
         pointer-events="none"
         id="path843-0-1-7" />
    </g>
    <g
       style="fill:#f0eecb;fill-opacity:1"
       transform="matrix(-0.36855609,0,0,-0.35547112,50.998714,340.20137)"
       id="g845-36-6">
      <path
         style="fill:#f0eecb;stroke:#000000;stroke-linejoin:round;stroke-miterlimit:10;fill-opacity:1"
         d="m 37.45,17.62 2.98,23.84 C 41,44.97 39.44,48.47 36.46,50.4 26.25,52 15.85,52 5.64,50.4 2.65,48.47 1.09,44.97 1.66,41.46 L 4.64,17.62 c 0.57,-2.64 3.42,-4.67 6.96,-4.97 h 18.89 c 3.54,0.3 6.39,2.33 6.96,4.97 z M 10.79,12.65 5.68,6.36 m 10.78,6.29 -1.7,-7.19 m 8.51,7.19 2.27,-7.19 m 3.41,7.19 5.68,-6.29 m 1.7,0.33 C 25.82,5.06 15.06,5.06 4.54,6.69 L 0,2.72 c 13.45,-2.71 27.42,-2.71 40.87,0 z"
         stroke-miterlimit="10"
         pointer-events="none"
         id="path843-0-1" />
    </g>
    <g
       style="fill:#f0eecb;fill-opacity:1"
       transform="matrix(0.36855609,0,0,0.35547112,35.557842,277.01351)"
       id="g845-36-6-5">
      <path
         style="fill:#f0eecb;stroke:#000000;stroke-linejoin:round;stroke-miterlimit:10;fill-opacity:1"
         d="m 37.45,17.62 2.98,23.84 C 41,44.97 39.44,48.47 36.46,50.4 26.25,52 15.85,52 5.64,50.4 2.65,48.47 1.09,44.97 1.66,41.46 L 4.64,17.62 c 0.57,-2.64 3.42,-4.67 6.96,-4.97 h 18.89 c 3.54,0.3 6.39,2.33 6.96,4.97 z M 10.79,12.65 5.68,6.36 m 10.78,6.29 -1.7,-7.19 m 8.51,7.19 2.27,-7.19 m 3.41,7.19 5.68,-6.29 m 1.7,0.33 C 25.82,5.06 15.06,5.06 4.54,6.69 L 0,2.72 c 13.45,-2.71 27.42,-2.71 40.87,0 z"
         stroke-miterlimit="10"
         pointer-events="none"
         id="path843-0-1-5" />
    </g>
    <g
       style="fill:#f0eecb;fill-opacity:1"
       transform="matrix(0.33402526,0.15575853,-0.15022859,0.32216624,66.109035,278.34625)"
       id="g845-36-6-5-4">
      <path
         style="fill:#f0eecb;stroke:#000000;stroke-linejoin:round;stroke-miterlimit:10;fill-opacity:1"
         d="m 37.45,17.62 2.98,23.84 C 41,44.97 39.44,48.47 36.46,50.4 26.25,52 15.85,52 5.64,50.4 2.65,48.47 1.09,44.97 1.66,41.46 L 4.64,17.62 c 0.57,-2.64 3.42,-4.67 6.96,-4.97 h 18.89 c 3.54,0.3 6.39,2.33 6.96,4.97 z M 10.79,12.65 5.68,6.36 m 10.78,6.29 -1.7,-7.19 m 8.51,7.19 2.27,-7.19 m 3.41,7.19 5.68,-6.29 m 1.7,0.33 C 25.82,5.06 15.06,5.06 4.54,6.69 L 0,2.72 c 13.45,-2.71 27.42,-2.71 40.87,0 z"
         stroke-miterlimit="10"
         pointer-events="none"
         id="path843-0-1-5-7" />
    </g>
    <g
       style="fill:#f0eecb;fill-opacity:1"
       transform="matrix(0.33402525,-0.15575853,0.15022859,0.32216624,6.0666052,285.22489)"
       id="g845-36-6-5-6">
      <path
         style="fill:#f0eecb;stroke:#000000;stroke-linejoin:round;stroke-miterlimit:10;fill-opacity:1"
         d="m 37.45,17.62 2.98,23.84 C 41,44.97 39.44,48.47 36.46,50.4 26.25,52 15.85,52 5.64,50.4 2.65,48.47 1.09,44.97 1.66,41.46 L 4.64,17.62 c 0.57,-2.64 3.42,-4.67 6.96,-4.97 h 18.89 c 3.54,0.3 6.39,2.33 6.96,4.97 z M 10.79,12.65 5.68,6.36 m 10.78,6.29 -1.7,-7.19 m 8.51,7.19 2.27,-7.19 m 3.41,7.19 5.68,-6.29 m 1.7,0.33 C 25.82,5.06 15.06,5.06 4.54,6.69 L 0,2.72 c 13.45,-2.71 27.42,-2.71 40.87,0 z"
         stroke-miterlimit="10"
         pointer-events="none"
         id="path843-0-1-5-5" />
    </g>
    <g
       style="fill:#f0eecb;fill-opacity:1"
       transform="matrix(-0.33402525,0.15575853,-0.15022859,-0.32216624,81.434891,332.74596)"
       id="g845-36-6-6">
      <path
         style="fill:#f0eecb;stroke:#000000;stroke-linejoin:round;stroke-miterlimit:10;fill-opacity:1"
         d="m 37.45,17.62 2.98,23.84 C 41,44.97 39.44,48.47 36.46,50.4 26.25,52 15.85,52 5.64,50.4 2.65,48.47 1.09,44.97 1.66,41.46 L 4.64,17.62 c 0.57,-2.64 3.42,-4.67 6.96,-4.97 h 18.89 c 3.54,0.3 6.39,2.33 6.96,4.97 z M 10.79,12.65 5.68,6.36 m 10.78,6.29 -1.7,-7.19 m 8.51,7.19 2.27,-7.19 m 3.41,7.19 5.68,-6.29 m 1.7,0.33 C 25.82,5.06 15.06,5.06 4.54,6.69 L 0,2.72 c 13.45,-2.71 27.42,-2.71 40.87,0 z"
         stroke-miterlimit="10"
         pointer-events="none"
         id="path843-0-1-9" />
    </g>
    <ellipse
       style="fill:#ffffff;stroke:#000000;stroke-width:0.40000001;stroke-miterlimit:4;stroke-dasharray:none;stroke-opacity:1;fill-opacity:1"
       id="path5179"
       cx="44.412201"
       cy="308.32397"
       rx="40.254463"
       ry="20.694197" />
  </g>
</svg>
