<?xml version="1.0" encoding="UTF-8" standalone="no"?>
<!-- Created with Inkscape (http://www.inkscape.org/) -->

<svg
   xmlns:dc="http://purl.org/dc/elements/1.1/"
   xmlns:cc="http://creativecommons.org/ns#"
   xmlns:rdf="http://www.w3.org/1999/02/22-rdf-syntax-ns#"
   xmlns:svg="http://www.w3.org/2000/svg"
   xmlns="http://www.w3.org/2000/svg"
   xmlns:sodipodi="http://sodipodi.sourceforge.net/DTD/sodipodi-0.dtd"
   xmlns:inkscape="http://www.inkscape.org/namespaces/inkscape"
   width="80.908928mm"
   height="63.054615mm"
   viewBox="0 0 80.908928 63.054615"
   version="1.1"
   id="svg902"
   inkscape:version="0.92.4 (unknown)"
   sodipodi:docname="table3.svg">
  <defs
     id="defs896" />
  <sodipodi:namedview
     id="base"
     pagecolor="#ffffff"
     bordercolor="#666666"
     borderopacity="1.0"
     inkscape:pageopacity="0.0"
     inkscape:pageshadow="2"
     inkscape:zoom="0.35"
     inkscape:cx="-746.97642"
     inkscape:cy="-107.56976"
     inkscape:document-units="mm"
     inkscape:current-layer="svg902"
     showgrid="false"
     inkscape:window-width="1920"
     inkscape:window-height="1031"
     inkscape:window-x="0"
     inkscape:window-y="0"
     inkscape:window-maximized="1" />
  <metadata
     id="metadata899">
    <rdf:RDF>
      <cc:Work
         rdf:about="">
        <dc:format>image/svg+xml</dc:format>
        <dc:type
           rdf:resource="http://purl.org/dc/dcmitype/StillImage" />
        <dc:title />
      </cc:Work>
    </rdf:RDF>
  </metadata>
  <g
     class="table"
     transform="translate(-3.9577377,-277.08013)"
     id="g18">
    <g
       id="g845-36-6-3"
       transform="matrix(-0.33402524,-0.15575853,0.15022859,-0.32216624,19.71821,336.65496)"
       style="display:inline">
      <path
         id="path843-0-1-7"
         pointer-events="none"
         stroke-miterlimit="10"
         d="m 37.45,17.62 2.98,23.84 C 41,44.97 39.44,48.47 36.46,50.4 26.25,52 15.85,52 5.64,50.4 2.65,48.47 1.09,44.97 1.66,41.46 L 4.64,17.62 c 0.57,-2.64 3.42,-4.67 6.96,-4.97 h 18.89 c 3.54,0.3 6.39,2.33 6.96,4.97 z M 10.79,12.65 5.68,6.36 m 10.78,6.29 -1.7,-7.19 m 8.51,7.19 2.27,-7.19 m 3.41,7.19 5.68,-6.29 m 1.7,0.33 C 25.82,5.06 15.06,5.06 4.54,6.69 L 0,2.72 c 13.45,-2.71 27.42,-2.71 40.87,0 z"
         inkscape:connector-curvature="0"
         style="fill:#ffffff;stroke:#000000;stroke-linejoin:round;stroke-miterlimit:10" />
    </g>
    <g
       id="g845-36-6"
       transform="matrix(-0.36855609,0,0,-0.35547112,50.998714,340.20137)">
      <path
         id="path843-0-1"
         pointer-events="none"
         stroke-miterlimit="10"
         d="m 37.45,17.62 2.98,23.84 C 41,44.97 39.44,48.47 36.46,50.4 26.25,52 15.85,52 5.64,50.4 2.65,48.47 1.09,44.97 1.66,41.46 L 4.64,17.62 c 0.57,-2.64 3.42,-4.67 6.96,-4.97 h 18.89 c 3.54,0.3 6.39,2.33 6.96,4.97 z M 10.79,12.65 5.68,6.36 m 10.78,6.29 -1.7,-7.19 m 8.51,7.19 2.27,-7.19 m 3.41,7.19 5.68,-6.29 m 1.7,0.33 C 25.82,5.06 15.06,5.06 4.54,6.69 L 0,2.72 c 13.45,-2.71 27.42,-2.71 40.87,0 z"
         inkscape:connector-curvature="0"
         style="fill:#ffffff;stroke:#000000;stroke-linejoin:round;stroke-miterlimit:10" />
    </g>
    <g
       id="g845-36-6-5"
       transform="matrix(0.36855609,0,0,0.35547112,35.557842,277.01351)">
      <path
         id="path843-0-1-5"
         pointer-events="none"
         stroke-miterlimit="10"
         d="m 37.45,17.62 2.98,23.84 C 41,44.97 39.44,48.47 36.46,50.4 26.25,52 15.85,52 5.64,50.4 2.65,48.47 1.09,44.97 1.66,41.46 L 4.64,17.62 c 0.57,-2.64 3.42,-4.67 6.96,-4.97 h 18.89 c 3.54,0.3 6.39,2.33 6.96,4.97 z M 10.79,12.65 5.68,6.36 m 10.78,6.29 -1.7,-7.19 m 8.51,7.19 2.27,-7.19 m 3.41,7.19 5.68,-6.29 m 1.7,0.33 C 25.82,5.06 15.06,5.06 4.54,6.69 L 0,2.72 c 13.45,-2.71 27.42,-2.71 40.87,0 z"
         inkscape:connector-curvature="0"
         style="fill:#ffffff;stroke:#000000;stroke-linejoin:round;stroke-miterlimit:10" />
    </g>
    <g
       id="g845-36-6-5-4"
       transform="matrix(0.33402526,0.15575853,-0.15022859,0.32216624,66.109035,278.34625)">
      <path
         id="path843-0-1-5-7"
         pointer-events="none"
         stroke-miterlimit="10"
         d="m 37.45,17.62 2.98,23.84 C 41,44.97 39.44,48.47 36.46,50.4 26.25,52 15.85,52 5.64,50.4 2.65,48.47 1.09,44.97 1.66,41.46 L 4.64,17.62 c 0.57,-2.64 3.42,-4.67 6.96,-4.97 h 18.89 c 3.54,0.3 6.39,2.33 6.96,4.97 z M 10.79,12.65 5.68,6.36 m 10.78,6.29 -1.7,-7.19 m 8.51,7.19 2.27,-7.19 m 3.41,7.19 5.68,-6.29 m 1.7,0.33 C 25.82,5.06 15.06,5.06 4.54,6.69 L 0,2.72 c 13.45,-2.71 27.42,-2.71 40.87,0 z"
         inkscape:connector-curvature="0"
         style="fill:#ffffff;stroke:#000000;stroke-linejoin:round;stroke-miterlimit:10" />
    </g>
    <g
       id="g845-36-6-5-6"
       transform="matrix(0.33402525,-0.15575853,0.15022859,0.32216624,6.0666052,285.22489)">
      <path
         id="path843-0-1-5-5"
         pointer-events="none"
         stroke-miterlimit="10"
         d="m 37.45,17.62 2.98,23.84 C 41,44.97 39.44,48.47 36.46,50.4 26.25,52 15.85,52 5.64,50.4 2.65,48.47 1.09,44.97 1.66,41.46 L 4.64,17.62 c 0.57,-2.64 3.42,-4.67 6.96,-4.97 h 18.89 c 3.54,0.3 6.39,2.33 6.96,4.97 z M 10.79,12.65 5.68,6.36 m 10.78,6.29 -1.7,-7.19 m 8.51,7.19 2.27,-7.19 m 3.41,7.19 5.68,-6.29 m 1.7,0.33 C 25.82,5.06 15.06,5.06 4.54,6.69 L 0,2.72 c 13.45,-2.71 27.42,-2.71 40.87,0 z"
         inkscape:connector-curvature="0"
         style="fill:#ffffff;stroke:#000000;stroke-linejoin:round;stroke-miterlimit:10" />
    </g>
    <g
       id="g845-36-6-6"
       transform="matrix(-0.33402525,0.15575853,-0.15022859,-0.32216624,81.434891,332.74596)">
      <path
         id="path843-0-1-9"
         pointer-events="none"
         stroke-miterlimit="10"
         d="m 37.45,17.62 2.98,23.84 C 41,44.97 39.44,48.47 36.46,50.4 26.25,52 15.85,52 5.64,50.4 2.65,48.47 1.09,44.97 1.66,41.46 L 4.64,17.62 c 0.57,-2.64 3.42,-4.67 6.96,-4.97 h 18.89 c 3.54,0.3 6.39,2.33 6.96,4.97 z M 10.79,12.65 5.68,6.36 m 10.78,6.29 -1.7,-7.19 m 8.51,7.19 2.27,-7.19 m 3.41,7.19 5.68,-6.29 m 1.7,0.33 C 25.82,5.06 15.06,5.06 4.54,6.69 L 0,2.72 c 13.45,-2.71 27.42,-2.71 40.87,0 z"
         inkscape:connector-curvature="0"
         style="fill:#ffffff;stroke:#000000;stroke-linejoin:round;stroke-miterlimit:10" />
    </g>
    <ellipse
       ry="20.694197"
       rx="40.254463"
       cy="308.32397"
       cx="44.412201"
       id="path5179"
       style="fill:#eeffaa;stroke:#000000;stroke-width:0.40000001;stroke-miterlimit:4;stroke-dasharray:none;stroke-opacity:1" />
  </g>
</svg>
